HIERARCHY
ROOT Hips
{
	OFFSET 53.310001 4.151966 85.463799
	CHANNELS 6 Xposition Yposition Zposition Xrotation Yrotation Zrotation
	JOINT spine
	{
		OFFSET 0.000000 -0.367607 6.392601
		CHANNELS 3 Xrotation Yrotation Zrotation
		JOINT spine1
		{
			OFFSET 0.000000 -0.000001 9.176109
			CHANNELS 3 Xrotation Yrotation Zrotation
			JOINT spine2
			{
				OFFSET 0.000000 -0.000001 8.792381
				CHANNELS 3 Xrotation Yrotation Zrotation
				JOINT Neck
				{
					OFFSET 0.000000 -1.076243 22.573700
					CHANNELS 3 Xrotation Yrotation Zrotation
					JOINT Head
					{
						OFFSET 0.000000 -0.000001 6.820114
						CHANNELS 3 Xrotation Yrotation Zrotation
						End Site
						{
							OFFSET 0.000000 5.444267 16.508499
						}
					}
				}
				JOINT RightShoulder
				{
					OFFSET -3.702209 0.515506 9.495087
					CHANNELS 3 Xrotation Yrotation Zrotation
					JOINT RightArm
					{
						OFFSET 0.000000 -0.000002 12.453705
						CHANNELS 3 Xrotation Yrotation Zrotation
						JOINT RightArmRoll
						{
							OFFSET 0.000000 -0.000001 6.286850
							CHANNELS 3 Xrotation Yrotation Zrotation
							JOINT RightForeArm
							{
								OFFSET 0.000000 -0.000003 18.311401
								CHANNELS 3 Xrotation Yrotation Zrotation
								JOINT RightForeArmRoll
								{
									OFFSET 0.000000 -0.000001 7.054825
									CHANNELS 3 Xrotation Yrotation Zrotation
									JOINT RightHand
									{
										OFFSET 0.000000 -0.000002 14.157501
										CHANNELS 3 Xrotation Yrotation Zrotation
										End Site
										{
											OFFSET 0.000000 0.000000 0.100006
										}
									}
								}
							}
						}
					}
				}
				JOINT LeftShoulder
				{
					OFFSET 3.702209 0.515506 9.495087
					CHANNELS 3 Xrotation Yrotation Zrotation
					JOINT LeftArm
					{
						OFFSET 0.000000 -0.000002 12.453705
						CHANNELS 3 Xrotation Yrotation Zrotation
						JOINT LeftArmRoll
						{
							OFFSET 0.000000 -0.000001 6.286865
							CHANNELS 3 Xrotation Yrotation Zrotation
							JOINT LeftForeArm
							{
								OFFSET 0.000000 -0.000003 18.311401
								CHANNELS 3 Xrotation Yrotation Zrotation
								JOINT LeftForeArmRoll
								{
									OFFSET 0.000000 -0.000001 7.054825
									CHANNELS 3 Xrotation Yrotation Zrotation
									JOINT LeftHand
									{
										OFFSET 0.000000 -0.000002 14.157501
										CHANNELS 3 Xrotation Yrotation Zrotation
										End Site
										{
											OFFSET 0.000000 0.000000 0.100006
										}
									}
								}
							}
						}
					}
				}
			}
		}
	}
	JOINT RightUpLeg
	{
		OFFSET -5.666161 0.871610 -1.039032
		CHANNELS 3 Xrotation Yrotation Zrotation
		JOINT RightUpLegRoll
		{
			OFFSET 0.000000 -0.000003 16.600502
			CHANNELS 3 Xrotation Yrotation Zrotation
			JOINT RightLeg
			{
				OFFSET 0.000000 0.000004 -20.557198
				CHANNELS 3 Xrotation Yrotation Zrotation
				JOINT RightLegRoll
				{
					OFFSET 0.000000 -0.000004 20.624397
					CHANNELS 3 Xrotation Yrotation Zrotation
					JOINT RightFoot
					{
						OFFSET 0.000000 -0.000002 17.166397
						CHANNELS 3 Xrotation Yrotation Zrotation
						JOINT RightToeBase
						{
							OFFSET 0.000000 -0.000002 14.350204
							CHANNELS 3 Xrotation Yrotation Zrotation
							End Site
							{
								OFFSET 0.006081 0.801060 6.949707
							}
						}
					}
				}
			}
		}
	}
	JOINT LeftUpLeg
	{
		OFFSET 5.666161 0.871610 -1.039032
		CHANNELS 3 Xrotation Yrotation Zrotation
		JOINT LeftUpLegRoll
		{
			OFFSET 0.000000 -0.000003 16.600601
			CHANNELS 3 Xrotation Yrotation Zrotation
			JOINT LeftLeg
			{
				OFFSET 0.000000 -0.000003 20.557098
				CHANNELS 3 Xrotation Yrotation Zrotation
				JOINT LeftLegRoll
				{
					OFFSET 0.000000 -0.000003 20.815102
					CHANNELS 3 Xrotation Yrotation Zrotation
					JOINT LeftFoot
					{
						OFFSET 0.000000 -0.000002 16.975693
						CHANNELS 3 Xrotation Yrotation Zrotation
						JOINT LeftToeBase
						{
							OFFSET 0.000000 -0.000002 14.350204
							CHANNELS 3 Xrotation Yrotation Zrotation
							End Site
							{
								OFFSET -0.027260 0.801060 6.949707
							}
						}
					}
				}
			}
		}
	}
}
MOTION
Frames: 6
Frame Time: 0.041667
52.606705 -12.940313 85.542595 -0.953906 0.890880 -0.311156 -1.675852 0.446728 -0.237153 0.652967 0.898300 -0.465538 2.298099 0.892622 -0.471781 9.517244 -7.157920 0.063574 2.727831 4.281461 0.505006 -12.046782 -62.091064 -14.354665 -43.321083 -115.873080 -40.432924 -0.000001 0.000000 -0.000004 7.832644 -15.855094 0.871191 -0.000005 -0.000006 -3.009970 -5.000183 -7.998843 0.000170 -2.872313 51.776095 2.572370 -34.027804 119.513858 34.405835 -0.000004 -0.000005 0.000004 6.114510 11.897985 -0.139643 -0.000004 0.000003 3.005270 -5.000221 7.998704 -0.000171 -1.301802 -178.279439 -0.181389 -179.999991 0.000005 -0.945006 174.148063 -4.161271 -0.606115 0.000003 0.000004 0.059007 68.490630 6.824780 2.334985 25.456921 -7.355109 0.000007 0.994376 178.073291 1.890655 -0.000005 -0.000004 -1.024040 -6.400115 1.823710 0.544091 -0.000004 0.000001 -0.091859 70.213402 -6.805780 -2.260135 26.063276 7.353717 -0.140111 
52.603508 -12.938114 85.544876 -0.955927 0.892112 -0.311991 -1.675319 0.445587 -0.237446 0.654010 0.896350 -0.465977 2.299148 0.890676 -0.472524 9.522083 -7.144037 0.064584 2.729160 4.266443 0.505561 -12.039988 -62.088933 -14.346618 -43.323982 -115.866632 -40.419000 0.000000 -0.000000 -0.000003 7.809745 -15.849471 0.867505 -0.000004 -0.000005 -3.009970 -5.000184 -7.998844 0.000170 -2.865830 51.783260 2.565217 -34.025482 119.499815 34.386861 -0.000006 -0.000004 0.000003 6.099093 11.892946 -0.137645 -0.000001 0.000003 3.005269 -5.000220 7.998705 -0.000172 -1.300559 -178.280437 -0.180394 -179.999991 0.000005 -0.945006 174.146492 -4.163257 -0.606432 0.000003 0.000004 0.059007 68.489681 6.824782 2.334945 25.456924 -7.355110 0.000007 0.993565 178.072293 1.890355 -0.000005 -0.000004 -1.024040 -6.405873 1.822607 0.544061 -0.000004 0.000001 -0.091855 70.217541 -6.805776 -2.260081 26.061451 7.353721 -0.141316 
52.602703 -12.939516 85.545883 -0.958082 0.893381 -0.312808 -1.674829 0.444389 -0.237753 0.654998 0.894330 -0.466437 2.300136 0.888661 -0.473300 9.527333 -7.129533 0.065591 2.730426 4.250797 0.506071 -12.032966 -62.086720 -14.338293 -43.325116 -115.860799 -40.403059 -0.000001 -0.000002 -0.000003 7.786981 -15.843746 0.863839 -0.000007 -0.000006 -3.009970 -5.000184 -7.998842 0.000170 -2.858729 51.790927 2.557372 -34.025318 119.484160 34.369778 -0.000004 -0.000004 0.000004 6.083428 11.887712 -0.135594 -0.000002 0.000003 3.005269 -5.000223 7.998703 -0.000170 -1.299168 -178.281434 -0.179321 -179.999991 0.000005 -0.945006 174.144948 -4.164238 -0.606645 0.000003 0.000004 0.059007 68.488745 6.824787 2.334901 25.456923 -7.355109 0.000006 0.992937 178.070285 1.890042 -0.000005 -0.000004 -1.024040 -6.411532 1.821414 0.544016 -0.000005 0.000001 -0.091849 70.221680 -6.805776 -2.260127 26.059532 7.353721 -0.142613 
52.604305 -12.941814 85.546188 -0.960344 0.894676 -0.313612 -1.674350 0.443149 -0.238071 0.655947 0.892261 -0.466910 2.301086 0.886597 -0.474096 9.532877 -7.114599 0.066581 2.731645 4.234710 0.506551 -12.025741 -62.084316 -14.329732 -43.327329 -115.854106 -40.388299 0.000002 0.000000 -0.000003 7.764300 -15.838010 0.860198 -0.000003 -0.000006 -3.009970 -5.000183 -7.998844 0.000170 -2.851222 51.799120 2.549066 -34.024178 119.469339 34.351183 -0.000004 -0.000004 0.000003 6.067595 11.882281 -0.133503 -0.000004 0.000003 3.005271 -5.000221 7.998704 -0.000171 -1.297679 -178.282431 -0.178192 -179.999991 0.000005 -0.945006 174.143350 -4.166211 -0.605967 0.000003 0.000004 0.059007 68.487796 6.824789 2.334960 25.456919 -7.355109 0.000006 0.992438 178.069288 1.889771 -0.000005 -0.000005 -1.024040 -6.417120 1.820162 0.543960 -0.000004 0.000001 -0.091842 70.225813 -6.805772 -2.260074 26.057511 7.353713 -0.143959 
52.600304 -12.931316 85.544388 -0.962659 0.895985 -0.314410 -1.673879 0.441884 -0.238394 0.656874 0.890165 -0.467391 2.302014 0.884506 -0.474906 9.538585 -7.099407 0.067555 2.732828 4.218395 0.507013 -12.018468 -62.082014 -14.321118 -43.329357 -115.847344 -40.373320 0.000000 -0.000001 -0.000003 7.741666 -15.832370 0.856578 -0.000005 -0.000006 -3.009970 -5.000181 -7.998842 0.000170 -2.843444 51.807412 2.540460 -34.024027 119.453670 34.333520 -0.000003 -0.000004 0.000004 6.051658 11.876753 -0.131384 -0.000003 0.000003 3.005271 -5.000220 7.998704 -0.000171 -1.296127 -178.283442 -0.177030 -179.999991 0.000005 -0.945006 174.141765 -4.168196 -0.606287 0.000003 0.000004 0.059007 68.486846 6.824793 2.334920 25.456923 -7.355109 0.000007 0.992015 178.068291 1.889498 -0.000005 -0.000004 -1.024040 -6.422648 1.818880 0.543899 -0.000004 0.000001 -0.091835 70.229945 -6.805770 -2.260122 26.055392 7.353717 -0.145347 
52.604805 -12.935015 85.544884 -0.964985 0.897300 -0.315205 -1.673419 0.440615 -0.238718 0.657796 0.888062 -0.467875 2.302933 0.882408 -0.475718 9.544335 -7.084162 0.068543 2.734017 4.201998 0.507471 -12.011142 -62.079624 -14.312436 -43.331386 -115.840582 -40.358328 -0.000001 -0.000001 -0.000003 7.719050 -15.826624 0.852966 -0.000004 -0.000005 -3.009970 -5.000177 -7.998844 0.000170 -2.835610 51.815895 2.531792 -34.022873 119.438849 34.314635 -0.000003 -0.000005 0.000004 6.035691 11.871123 -0.129261 -0.000004 0.000003 3.005269 -5.000222 7.998704 -0.000169 -1.294565 -178.284439 -0.175862 -179.999991 0.000005 -0.945006 174.140167 -4.171161 -0.606708 0.000003 0.000004 0.059007 68.485808 6.824824 2.334889 25.456921 -7.355110 0.000007 0.991610 178.067280 1.889234 -0.000005 -0.000004 -1.024040 -6.428176 1.817588 0.543835 -0.000004 0.000001 -0.091827 70.234077 -6.805765 -2.260168 26.053272 7.353713 -0.146740 
